<mxfile host="app.diagrams.net" agent="Mozilla/5.0 (Macintosh; Intel Mac OS X 10_15_7) AppleWebKit/537.36 (KHTML, like Gecko) Chrome/139.0.0.0 Safari/537.36" version="28.1.1" pages="2">
  <diagram name="YardPass Interactive Architecture" id="yardpass-interactive-architecture">
    <mxGraphModel dx="946" dy="694" grid="1" gridSize="10" guides="1" tooltips="1" connect="1" arrows="1" fold="1" page="1" pageScale="1" pageWidth="1400" pageHeight="1200" math="0" shadow="0">
      <root>
        <mxCell id="0" />
        <mxCell id="1" parent="0" />
        <mxCell id="title" value="YardPass - Interactive Architecture Overview" style="text;html=1;strokeColor=none;fillColor=none;align=center;verticalAlign=middle;whiteSpace=wrap;rounded=0;fontSize=28;fontStyle=1;fontColor=#1a1a1a;" parent="1" vertex="1">
          <mxGeometry x="500" y="20" width="400" height="40" as="geometry" />
        </mxCell>
        <mxCell id="user-layer" value="User Interaction Layer" style="swimlane;fontStyle=1;align=center;verticalAlign=top;childLayout=stackLayout;horizontal=1;startSize=30;horizontalStack=0;resizeParent=1;resizeParentMax=0;resizeLast=0;collapsible=1;marginBottom=0;fillColor=#e1d5e7;strokeColor=#9673a6;" parent="1" vertex="1">
          <mxGeometry x="40" y="80" width="1320" height="120" as="geometry" />
        </mxCell>
        <mxCell id="users" value="👥 Users" style="ellipse;whiteSpace=wrap;html=1;fillColor=#d5e8d4;strokeColor=#82b366;fontSize=14;fontStyle=1;" parent="user-layer" vertex="1">
          <mxGeometry x="20" y="40" width="100" height="60" as="geometry" />
        </mxCell>
        <mxCell id="mobile-app" value="📱 Mobile App&#xa;(React Native + Expo)&#xa;✅ COMPLETED" style="rounded=1;whiteSpace=wrap;html=1;fillColor=#d5e8d4;strokeColor=#82b366;fontSize=12;fontStyle=1;" parent="user-layer" vertex="1">
          <mxGeometry x="140" y="40" width="180" height="60" as="geometry" />
        </mxCell>
        <mxCell id="web-app" value="🌐 Web App&#xa;(React + Next.js)&#xa;🔄 IN PROGRESS" style="rounded=1;whiteSpace=wrap;html=1;fillColor=#fff2cc;strokeColor=#d6b656;fontSize=12;fontStyle=1;" parent="user-layer" vertex="1">
          <mxGeometry x="340" y="40" width="180" height="60" as="geometry" />
        </mxCell>
        <mxCell id="dns" value="🌍 DNS&#xa;Domain Resolution&#xa;✅ COMPLETED" style="rounded=1;whiteSpace=wrap;html=1;fillColor=#d5e8d4;strokeColor=#82b366;fontSize=12;" parent="user-layer" vertex="1">
          <mxGeometry x="540" y="40" width="140" height="60" as="geometry" />
        </mxCell>
        <mxCell id="cdn" value="⚡ CDN&#xa;Content Delivery&#xa;✅ COMPLETED" style="rounded=1;whiteSpace=wrap;html=1;fillColor=#d5e8d4;strokeColor=#82b366;fontSize=12;" parent="user-layer" vertex="1">
          <mxGeometry x="700" y="40" width="140" height="60" as="geometry" />
        </mxCell>
        <mxCell id="load-balancer" value="⚖️ Load Balancer&#xa;Traffic Distribution&#xa;🔄 IN PROGRESS" style="rounded=1;whiteSpace=wrap;html=1;fillColor=#fff2cc;strokeColor=#d6b656;fontSize=12;" parent="user-layer" vertex="1">
          <mxGeometry x="860" y="40" width="140" height="60" as="geometry" />
        </mxCell>
        <mxCell id="monitoring" value="📊 Monitoring&#xa;System Health&#xa;⚠️ NEEDS WORK" style="rounded=1;whiteSpace=wrap;html=1;fillColor=#f8cecc;strokeColor=#b85450;fontSize=12;" parent="user-layer" vertex="1">
          <mxGeometry x="1020" y="40" width="140" height="60" as="geometry" />
        </mxCell>
        <mxCell id="analytics" value="📈 Analytics&#xa;User Behavior&#xa;✅ COMPLETED" style="rounded=1;whiteSpace=wrap;html=1;fillColor=#d5e8d4;strokeColor=#82b366;fontSize=12;" parent="user-layer" vertex="1">
          <mxGeometry x="1180" y="40" width="140" height="60" as="geometry" />
        </mxCell>
        <mxCell id="app-core" value="Application Core Infrastructure" style="swimlane;fontStyle=1;align=center;verticalAlign=top;childLayout=stackLayout;horizontal=1;startSize=30;horizontalStack=0;resizeParent=1;resizeParentMax=0;resizeLast=0;collapsible=1;marginBottom=0;fillColor=#f5f5f5;strokeColor=#666666;" parent="1" vertex="1">
          <mxGeometry x="40" y="220" width="1320" height="400" as="geometry" />
        </mxCell>
        <mxCell id="frontend-servers" value="Frontend Servers" style="swimlane;fontStyle=1;align=center;verticalAlign=top;childLayout=stackLayout;horizontal=1;startSize=30;horizontalStack=0;resizeParent=1;resizeParentMax=0;resizeLast=0;collapsible=1;marginBottom=0;fillColor=#dae8fc;strokeColor=#6c8ebf;" parent="app-core" vertex="1">
          <mxGeometry x="20" y="40" width="300" height="120" as="geometry" />
        </mxCell>
        <mxCell id="vm1" value="🖥️ VM Instance 1&#xa;Web Server&#xa;✅ COMPLETED" style="rounded=1;whiteSpace=wrap;html=1;fillColor=#d5e8d4;strokeColor=#82b366;fontSize=11;" parent="frontend-servers" vertex="1">
          <mxGeometry x="20" y="40" width="120" height="60" as="geometry" />
        </mxCell>
        <mxCell id="vm2" value="🖥️ VM Instance 2&#xa;Web Server&#xa;✅ COMPLETED" style="rounded=1;whiteSpace=wrap;html=1;fillColor=#d5e8d4;strokeColor=#82b366;fontSize=11;" parent="frontend-servers" vertex="1">
          <mxGeometry x="160" y="40" width="120" height="60" as="geometry" />
        </mxCell>
        <mxCell id="backend-services" value="Backend Services" style="swimlane;fontStyle=1;align=center;verticalAlign=top;childLayout=stackLayout;horizontal=1;startSize=30;horizontalStack=0;resizeParent=1;resizeParentMax=0;resizeLast=0;collapsible=1;marginBottom=0;fillColor=#fff2cc;strokeColor=#d6b656;" parent="app-core" vertex="1">
          <mxGeometry x="340" y="40" width="300" height="120" as="geometry" />
        </mxCell>
        <mxCell id="app-server" value="⚙️ Application Server&#xa;Business Logic&#xa;✅ COMPLETED" style="rounded=1;whiteSpace=wrap;html=1;fillColor=#d5e8d4;strokeColor=#82b366;fontSize=11;" parent="backend-services" vertex="1">
          <mxGeometry x="20" y="40" width="120" height="60" as="geometry" />
        </mxCell>
        <mxCell id="db-cache" value="💾 Database Cache&#xa;Redis/Memcached&#xa;🔄 IN PROGRESS" style="rounded=1;whiteSpace=wrap;html=1;fillColor=#fff2cc;strokeColor=#d6b656;fontSize=11;" parent="backend-services" vertex="1">
          <mxGeometry x="160" y="40" width="120" height="60" as="geometry" />
        </mxCell>
        <mxCell id="edge-functions" value="Supabase Edge Functions" style="swimlane;fontStyle=1;align=center;verticalAlign=top;childLayout=stackLayout;horizontal=1;startSize=30;horizontalStack=0;resizeParent=1;resizeParentMax=0;resizeLast=0;collapsible=1;marginBottom=0;fillColor=#e1d5e7;strokeColor=#9673a6;" parent="app-core" vertex="1">
          <mxGeometry x="660" y="40" width="300" height="120" as="geometry" />
        </mxCell>
        <mxCell id="event-functions" value="🎫 Event Functions&#xa;create-event, get-events&#xa;✅ COMPLETED" style="rounded=1;whiteSpace=wrap;html=1;fillColor=#d5e8d4;strokeColor=#82b366;fontSize=10;" parent="edge-functions" vertex="1">
          <mxGeometry x="20" y="40" width="120" height="60" as="geometry" />
        </mxCell>
        <mxCell id="payment-functions" value="💳 Payment Functions&#xa;stripe-webhook, checkout&#xa;✅ COMPLETED" style="rounded=1;whiteSpace=wrap;html=1;fillColor=#d5e8d4;strokeColor=#82b366;fontSize=10;" parent="edge-functions" vertex="1">
          <mxGeometry x="160" y="40" width="120" height="60" as="geometry" />
        </mxCell>
        <mxCell id="message-queue" value="Message Queue &amp; Notifications" style="swimlane;fontStyle=1;align=center;verticalAlign=top;childLayout=stackLayout;horizontal=1;startSize=30;horizontalStack=0;resizeParent=1;resizeParentMax=0;resizeLast=0;collapsible=1;marginBottom=0;fillColor=#ffe6cc;strokeColor=#d79b00;" parent="app-core" vertex="1">
          <mxGeometry x="980" y="40" width="300" height="120" as="geometry" />
        </mxCell>
        <mxCell id="push-notifications" value="📱 Push Notifications&#xa;Expo Notifications&#xa;✅ COMPLETED" style="rounded=1;whiteSpace=wrap;html=1;fillColor=#d5e8d4;strokeColor=#82b366;fontSize=10;" parent="message-queue" vertex="1">
          <mxGeometry x="20" y="40" width="120" height="60" as="geometry" />
        </mxCell>
        <mxCell id="email-sms" value="📧 Email/SMS&#xa;Communication&#xa;🔄 IN PROGRESS" style="rounded=1;whiteSpace=wrap;html=1;fillColor=#fff2cc;strokeColor=#d6b656;fontSize=10;" parent="message-queue" vertex="1">
          <mxGeometry x="160" y="40" width="120" height="60" as="geometry" />
        </mxCell>
        <mxCell id="cloud-storage" value="Cloud Storage &amp; Media Processing" style="swimlane;fontStyle=1;align=center;verticalAlign=top;childLayout=stackLayout;horizontal=1;startSize=30;horizontalStack=0;resizeParent=1;resizeParentMax=0;resizeLast=0;collapsible=1;marginBottom=0;fillColor=#f8cecc;strokeColor=#b85450;" parent="app-core" vertex="1">
          <mxGeometry x="20" y="180" width="1260" height="200" as="geometry" />
        </mxCell>
        <mxCell id="media-files" value="📁 Media Files&#xa;User Uploads&#xa;✅ COMPLETED" style="rounded=1;whiteSpace=wrap;html=1;fillColor=#d5e8d4;strokeColor=#82b366;fontSize=11;" parent="cloud-storage" vertex="1">
          <mxGeometry x="20" y="40" width="120" height="60" as="geometry" />
        </mxCell>
        <mxCell id="content-filter" value="🔍 Content Filter&#xa;Moderation&#xa;⚠️ NEEDS WORK" style="rounded=1;whiteSpace=wrap;html=1;fillColor=#f8cecc;strokeColor=#b85450;fontSize=11;" parent="cloud-storage" vertex="1">
          <mxGeometry x="160" y="40" width="120" height="60" as="geometry" />
        </mxCell>
        <mxCell id="storage1" value="☁️ External Storage 1&#xa;Supabase Storage&#xa;✅ COMPLETED" style="rounded=1;whiteSpace=wrap;html=1;fillColor=#d5e8d4;strokeColor=#82b366;fontSize=11;" parent="cloud-storage" vertex="1">
          <mxGeometry x="300" y="40" width="120" height="60" as="geometry" />
        </mxCell>
        <mxCell id="video-converter" value="🎬 Video Converter&#xa;Processing&#xa;🔄 IN PROGRESS" style="rounded=1;whiteSpace=wrap;html=1;fillColor=#fff2cc;strokeColor=#d6b656;fontSize=11;" parent="cloud-storage" vertex="1">
          <mxGeometry x="440" y="40" width="120" height="60" as="geometry" />
        </mxCell>
        <mxCell id="storage2" value="☁️ External Storage 2&#xa;Processed Content&#xa;✅ COMPLETED" style="rounded=1;whiteSpace=wrap;html=1;fillColor=#d5e8d4;strokeColor=#82b366;fontSize=11;" parent="cloud-storage" vertex="1">
          <mxGeometry x="580" y="40" width="120" height="60" as="geometry" />
        </mxCell>
        <mxCell id="image-processing" value="🖼️ Image Processing&#xa;Thumbnails &amp; Resize&#xa;✅ COMPLETED" style="rounded=1;whiteSpace=wrap;html=1;fillColor=#d5e8d4;strokeColor=#82b366;fontSize=11;" parent="cloud-storage" vertex="1">
          <mxGeometry x="720" y="40" width="120" height="60" as="geometry" />
        </mxCell>
        <mxCell id="cdn-storage" value="⚡ CDN Storage&#xa;Global Distribution&#xa;✅ COMPLETED" style="rounded=1;whiteSpace=wrap;html=1;fillColor=#d5e8d4;strokeColor=#82b366;fontSize=11;" parent="cloud-storage" vertex="1">
          <mxGeometry x="860" y="40" width="120" height="60" as="geometry" />
        </mxCell>
        <mxCell id="backup-storage" value="💾 Backup Storage&#xa;Disaster Recovery&#xa;⚠️ NEEDS WORK" style="rounded=1;whiteSpace=wrap;html=1;fillColor=#f8cecc;strokeColor=#b85450;fontSize=11;" parent="cloud-storage" vertex="1">
          <mxGeometry x="1000" y="40" width="120" height="60" as="geometry" />
        </mxCell>
        <mxCell id="media-analytics" value="📊 Media Analytics&#xa;Usage Tracking&#xa;🔄 IN PROGRESS" style="rounded=1;whiteSpace=wrap;html=1;fillColor=#fff2cc;strokeColor=#d6b656;fontSize=11;" parent="cloud-storage" vertex="1">
          <mxGeometry x="1140" y="40" width="120" height="60" as="geometry" />
        </mxCell>
        <mxCell id="database-layer" value="Database Layer (Supabase PostgreSQL)" style="swimlane;fontStyle=1;align=center;verticalAlign=top;childLayout=stackLayout;horizontal=1;startSize=30;horizontalStack=0;resizeParent=1;resizeParentMax=0;resizeLast=0;collapsible=1;marginBottom=0;fillColor=#d5e8d4;strokeColor=#82b366;" parent="1" vertex="1">
          <mxGeometry x="40" y="640" width="1320" height="200" as="geometry" />
        </mxCell>
        <mxCell id="auth-db" value="🔐 Auth Database&#xa;users, sessions&#xa;✅ COMPLETED" style="rounded=1;whiteSpace=wrap;html=1;fillColor=#d5e8d4;strokeColor=#82b366;fontSize=11;" parent="database-layer" vertex="1">
          <mxGeometry x="20" y="40" width="160" height="60" as="geometry" />
        </mxCell>
        <mxCell id="core-db" value="📊 Core Database&#xa;events, tickets, orders&#xa;✅ COMPLETED" style="rounded=1;whiteSpace=wrap;html=1;fillColor=#d5e8d4;strokeColor=#82b366;fontSize=11;" parent="database-layer" vertex="1">
          <mxGeometry x="200" y="40" width="160" height="60" as="geometry" />
        </mxCell>
        <mxCell id="social-db" value="👥 Social Database&#xa;posts, comments, reactions&#xa;✅ COMPLETED" style="rounded=1;whiteSpace=wrap;html=1;fillColor=#d5e8d4;strokeColor=#82b366;fontSize=11;" parent="database-layer" vertex="1">
          <mxGeometry x="380" y="40" width="160" height="60" as="geometry" />
        </mxCell>
        <mxCell id="analytics-db" value="📈 Analytics Database&#xa;user_behavior, metrics&#xa;✅ COMPLETED" style="rounded=1;whiteSpace=wrap;html=1;fillColor=#d5e8d4;strokeColor=#82b366;fontSize=11;" parent="database-layer" vertex="1">
          <mxGeometry x="560" y="40" width="160" height="60" as="geometry" />
        </mxCell>
        <mxCell id="payment-db" value="💳 Payment Database&#xa;stripe_data, refunds&#xa;✅ COMPLETED" style="rounded=1;whiteSpace=wrap;html=1;fillColor=#d5e8d4;strokeColor=#82b366;fontSize=11;" parent="database-layer" vertex="1">
          <mxGeometry x="740" y="40" width="160" height="60" as="geometry" />
        </mxCell>
        <mxCell id="cache-db" value="⚡ Cache Database&#xa;search_cache, sessions&#xa;✅ COMPLETED" style="rounded=1;whiteSpace=wrap;html=1;fillColor=#d5e8d4;strokeColor=#82b366;fontSize=11;" parent="database-layer" vertex="1">
          <mxGeometry x="920" y="40" width="160" height="60" as="geometry" />
        </mxCell>
        <mxCell id="backup-db" value="💾 Backup Database&#xa;Disaster Recovery&#xa;⚠️ NEEDS WORK" style="rounded=1;whiteSpace=wrap;html=1;fillColor=#f8cecc;strokeColor=#b85450;fontSize=11;" parent="database-layer" vertex="1">
          <mxGeometry x="1100" y="40" width="160" height="60" as="geometry" />
        </mxCell>
        <mxCell id="analytics-pipeline" value="Data Analytics Pipeline" style="swimlane;fontStyle=1;align=center;verticalAlign=top;childLayout=stackLayout;horizontal=1;startSize=30;horizontalStack=0;resizeParent=1;resizeParentMax=0;resizeLast=0;collapsible=1;marginBottom=0;fillColor=#e1d5e7;strokeColor=#9673a6;" parent="1" vertex="1">
          <mxGeometry x="40" y="860" width="1320" height="200" as="geometry" />
        </mxCell>
        <mxCell id="data-collection" value="📥 Data Collection&#xa;User Behavior Logs&#xa;✅ COMPLETED" style="rounded=1;whiteSpace=wrap;html=1;fillColor=#d5e8d4;strokeColor=#82b366;fontSize=11;" parent="analytics-pipeline" vertex="1">
          <mxGeometry x="20" y="40" width="160" height="60" as="geometry" />
        </mxCell>
        <mxCell id="etl-process" value="🔄 ETL Process&#xa;Extract, Transform, Load&#xa;🔄 IN PROGRESS" style="rounded=1;whiteSpace=wrap;html=1;fillColor=#fff2cc;strokeColor=#d6b656;fontSize=11;" parent="analytics-pipeline" vertex="1">
          <mxGeometry x="200" y="40" width="160" height="60" as="geometry" />
        </mxCell>
        <mxCell id="data-warehouse" value="🏢 Data Warehouse&#xa;Analytical Storage&#xa;⚠️ NEEDS WORK" style="rounded=1;whiteSpace=wrap;html=1;fillColor=#f8cecc;strokeColor=#b85450;fontSize=11;" parent="analytics-pipeline" vertex="1">
          <mxGeometry x="380" y="40" width="160" height="60" as="geometry" />
        </mxCell>
        <mxCell id="big-data" value="🐘 Big Data Processing&#xa;Hadoop/Spark&#xa;⚠️ NEEDS WORK" style="rounded=1;whiteSpace=wrap;html=1;fillColor=#f8cecc;strokeColor=#b85450;fontSize=11;" parent="analytics-pipeline" vertex="1">
          <mxGeometry x="560" y="40" width="160" height="60" as="geometry" />
        </mxCell>
        <mxCell id="business-intelligence" value="📊 Business Intelligence&#xa;Reports &amp; Dashboards&#xa;🔄 IN PROGRESS" style="rounded=1;whiteSpace=wrap;html=1;fillColor=#fff2cc;strokeColor=#d6b656;fontSize=11;" parent="analytics-pipeline" vertex="1">
          <mxGeometry x="740" y="40" width="160" height="60" as="geometry" />
        </mxCell>
        <mxCell id="ml-predictions" value="🤖 ML Predictions&#xa;Recommendations&#xa;⚠️ NEEDS WORK" style="rounded=1;whiteSpace=wrap;html=1;fillColor=#f8cecc;strokeColor=#b85450;fontSize=11;" parent="analytics-pipeline" vertex="1">
          <mxGeometry x="920" y="40" width="160" height="60" as="geometry" />
        </mxCell>
        <mxCell id="real-time-analytics" value="⚡ Real-time Analytics&#xa;Live Metrics&#xa;✅ COMPLETED" style="rounded=1;whiteSpace=wrap;html=1;fillColor=#d5e8d4;strokeColor=#82b366;fontSize=11;" parent="analytics-pipeline" vertex="1">
          <mxGeometry x="1100" y="40" width="160" height="60" as="geometry" />
        </mxCell>
        <mxCell id="external-services" value="External Services &amp; Integrations" style="swimlane;fontStyle=1;align=center;verticalAlign=top;childLayout=stackLayout;horizontal=1;startSize=30;horizontalStack=0;resizeParent=1;resizeParentMax=0;resizeLast=0;collapsible=1;marginBottom=0;fillColor=#ffe6cc;strokeColor=#d79b00;" parent="1" vertex="1">
          <mxGeometry x="40" y="1080" width="1320" height="100" as="geometry" />
        </mxCell>
        <mxCell id="stripe" value="💳 Stripe&#xa;Payments" style="rounded=1;whiteSpace=wrap;html=1;fillColor=#d5e8d4;strokeColor=#82b366;fontSize=11;" parent="external-services" vertex="1">
          <mxGeometry x="20" y="40" width="100" height="40" as="geometry" />
        </mxCell>
        <mxCell id="mapbox" value="🗺️ Mapbox&#xa;Maps" style="rounded=1;whiteSpace=wrap;html=1;fillColor=#d5e8d4;strokeColor=#82b366;fontSize=11;" parent="external-services" vertex="1">
          <mxGeometry x="140" y="40" width="100" height="40" as="geometry" />
        </mxCell>
        <mxCell id="google" value="🔍 Google&#xa;Services" style="rounded=1;whiteSpace=wrap;html=1;fillColor=#d5e8d4;strokeColor=#82b366;fontSize=11;" parent="external-services" vertex="1">
          <mxGeometry x="260" y="40" width="100" height="40" as="geometry" />
        </mxCell>
        <mxCell id="expo" value="📱 Expo&#xa;Notifications" style="rounded=1;whiteSpace=wrap;html=1;fillColor=#d5e8d4;strokeColor=#82b366;fontSize=11;" parent="external-services" vertex="1">
          <mxGeometry x="380" y="40" width="100" height="40" as="geometry" />
        </mxCell>
        <mxCell id="supabase" value="☁️ Supabase&#xa;Backend" style="rounded=1;whiteSpace=wrap;html=1;fillColor=#d5e8d4;strokeColor=#82b366;fontSize=11;" parent="external-services" vertex="1">
          <mxGeometry x="500" y="40" width="100" height="40" as="geometry" />
        </mxCell>
        <mxCell id="aws" value="☁️ AWS&#xa;Infrastructure" style="rounded=1;whiteSpace=wrap;html=1;fillColor=#fff2cc;strokeColor=#d6b656;fontSize=11;" parent="external-services" vertex="1">
          <mxGeometry x="620" y="40" width="100" height="40" as="geometry" />
        </mxCell>
        <mxCell id="firebase" value="🔥 Firebase&#xa;Analytics" style="rounded=1;whiteSpace=wrap;html=1;fillColor=#fff2cc;strokeColor=#d6b656;fontSize=11;" parent="external-services" vertex="1">
          <mxGeometry x="740" y="40" width="100" height="40" as="geometry" />
        </mxCell>
        <mxCell id="segment" value="📊 Segment&#xa;Tracking" style="rounded=1;whiteSpace=wrap;html=1;fillColor=#fff2cc;strokeColor=#d6b656;fontSize=11;" parent="external-services" vertex="1">
          <mxGeometry x="860" y="40" width="100" height="40" as="geometry" />
        </mxCell>
        <mxCell id="sentry" value="🐛 Sentry&#xa;Error Tracking" style="rounded=1;whiteSpace=wrap;html=1;fillColor=#f8cecc;strokeColor=#b85450;fontSize=11;" parent="external-services" vertex="1">
          <mxGeometry x="980" y="40" width="100" height="40" as="geometry" />
        </mxCell>
        <mxCell id="datadog" value="📈 Datadog&#xa;Monitoring" style="rounded=1;whiteSpace=wrap;html=1;fillColor=#f8cecc;strokeColor=#b85450;fontSize=11;" parent="external-services" vertex="1">
          <mxGeometry x="1100" y="40" width="100" height="40" as="geometry" />
        </mxCell>
        <mxCell id="zapier" value="🔗 Zapier&#xa;Automation" style="rounded=1;whiteSpace=wrap;html=1;fillColor=#f8cecc;strokeColor=#b85450;fontSize=11;" parent="external-services" vertex="1">
          <mxGeometry x="1220" y="40" width="100" height="40" as="geometry" />
        </mxCell>
        <mxCell id="flow1" value="" style="endArrow=classic;html=1;rounded=0;strokeWidth=3;strokeColor=#82b366;" parent="1" source="users" target="mobile-app" edge="1">
          <mxGeometry width="50" height="50" relative="1" as="geometry">
            <mxPoint x="120" y="140" as="sourcePoint" />
            <mxPoint x="170" y="90" as="targetPoint" />
          </mxGeometry>
        </mxCell>
        <mxCell id="flow2" value="" style="endArrow=classic;html=1;rounded=0;strokeWidth=3;strokeColor=#82b366;" parent="1" source="users" target="web-app" edge="1">
          <mxGeometry width="50" height="50" relative="1" as="geometry">
            <mxPoint x="120" y="140" as="sourcePoint" />
            <mxPoint x="430" y="90" as="targetPoint" />
          </mxGeometry>
        </mxCell>
        <mxCell id="flow3" value="" style="endArrow=classic;html=1;rounded=0;strokeWidth=2;strokeColor=#6c8ebf;" parent="1" source="vm1" target="app-server" edge="1">
          <mxGeometry width="50" height="50" relative="1" as="geometry">
            <mxPoint x="360" y="340" as="sourcePoint" />
            <mxPoint x="450" y="280" as="targetPoint" />
          </mxGeometry>
        </mxCell>
        <mxCell id="flow4" value="" style="endArrow=classic;html=1;rounded=0;strokeWidth=2;strokeColor=#82b366;" parent="1" source="app-server" target="core-db" edge="1">
          <mxGeometry width="50" height="50" relative="1" as="geometry">
            <mxPoint x="450" y="340" as="sourcePoint" />
            <mxPoint x="280" y="640" as="targetPoint" />
          </mxGeometry>
        </mxCell>
        <mxCell id="flow5" value="" style="endArrow=classic;html=1;rounded=0;strokeWidth=2;strokeColor=#9673a6;" parent="1" source="core-db" target="data-collection" edge="1">
          <mxGeometry width="50" height="50" relative="1" as="geometry">
            <mxPoint x="280" y="720" as="sourcePoint" />
            <mxPoint x="100" y="860" as="targetPoint" />
          </mxGeometry>
        </mxCell>
        <mxCell id="status-legend" value="Status Legend" style="swimlane;fontStyle=1;align=center;verticalAlign=top;childLayout=stackLayout;horizontal=1;startSize=30;horizontalStack=0;resizeParent=1;resizeParentMax=0;resizeLast=0;collapsible=1;marginBottom=0;fillColor=#f5f5f5;strokeColor=#666666;" parent="1" vertex="1">
          <mxGeometry x="40" y="1200" width="1320" height="80" as="geometry" />
        </mxCell>
        <mxCell id="completed" value="✅ COMPLETED" style="rounded=1;whiteSpace=wrap;html=1;fillColor=#d5e8d4;strokeColor=#82b366;fontSize=12;fontStyle=1;" parent="status-legend" vertex="1">
          <mxGeometry x="20" y="40" width="120" height="30" as="geometry" />
        </mxCell>
        <mxCell id="in-progress" value="🔄 IN PROGRESS" style="rounded=1;whiteSpace=wrap;html=1;fillColor=#fff2cc;strokeColor=#d6b656;fontSize=12;fontStyle=1;" parent="status-legend" vertex="1">
          <mxGeometry x="160" y="40" width="120" height="30" as="geometry" />
        </mxCell>
        <mxCell id="needs-work" value="⚠️ NEEDS WORK" style="rounded=1;whiteSpace=wrap;html=1;fillColor=#f8cecc;strokeColor=#b85450;fontSize=12;fontStyle=1;" parent="status-legend" vertex="1">
          <mxGeometry x="300" y="40" width="120" height="30" as="geometry" />
        </mxCell>
        <mxCell id="clickable" value="🖱️ CLICKABLE ELEMENTS" style="rounded=1;whiteSpace=wrap;html=1;fillColor=#e1d5e7;strokeColor=#9673a6;fontSize=12;fontStyle=1;" parent="status-legend" vertex="1">
          <mxGeometry x="440" y="40" width="150" height="30" as="geometry" />
        </mxCell>
        <mxCell id="data-flow" value="➡️ DATA FLOW" style="endArrow=classic;html=1;rounded=0;strokeWidth=3;strokeColor=#82b366;fontSize=12;fontStyle=1;" parent="status-legend" vertex="1">
          <mxGeometry x="610" y="40" width="100" height="30" as="geometry" />
        </mxCell>
        <mxCell id="api-calls" value="🔗 API CALLS" style="endArrow=classic;html=1;rounded=0;strokeWidth=2;strokeColor=#6c8ebf;fontSize=12;fontStyle=1;" parent="status-legend" vertex="1">
          <mxGeometry x="730" y="40" width="100" height="30" as="geometry" />
        </mxCell>
        <mxCell id="analytics-flow" value="📊 ANALYTICS FLOW" style="endArrow=classic;html=1;rounded=0;strokeWidth=2;strokeColor=#9673a6;fontSize=12;fontStyle=1;" parent="status-legend" vertex="1">
          <mxGeometry x="850" y="40" width="130" height="30" as="geometry" />
        </mxCell>
        <mxCell id="interactive-notes" value="Interactive Features:&#xa;• Click on any component to see detailed information&#xa;• Status indicators show completion level&#xa;• Color-coded by functionality and status&#xa;• Data flow arrows show system interactions&#xa;• Hover over elements for tooltips&#xa;• Expandable sections for detailed views" style="text;html=1;strokeColor=none;fillColor=#f5f5f5;align=left;verticalAlign=top;whiteSpace=wrap;rounded=1;fontSize=10;fontStyle=2;" parent="1" vertex="1">
          <mxGeometry x="40" y="1300" width="1320" height="60" as="geometry" />
        </mxCell>
      </root>
    </mxGraphModel>
  </diagram>
  <diagram id="GQUo0HRPI6osWTuGh2jm" name="Page-2">
    <mxGraphModel dx="946" dy="694" grid="1" gridSize="10" guides="1" tooltips="1" connect="1" arrows="1" fold="1" page="1" pageScale="1" pageWidth="850" pageHeight="1100" math="0" shadow="0">
      <root>
        <mxCell id="0" />
        <mxCell id="1" parent="0" />
      </root>
    </mxGraphModel>
  </diagram>
</mxfile>
